INFO

Osmosis.Jones.PL.DVDRip.XviD-RLF
                 

General:

Complete name                    : rlf-ojones.avi
Format                           : AVI
Format/Info                      : Audio Video Interleave
File size                        : 699 MiB
Duration                         : 1h 31mn
Overall bit rate                 : 1 068 Kbps


Video:

Format                           : MPEG-4 Visual
Format profile                   : Advanced Simple@L5
Format settings, BVOP            : 2
Format settings, QPel            : No
Format settings, GMC             : No warppoints
Format settings, Matrix          : Default (H.263)
Codec ID                         : XVID
Duration                         : 1h 31mn
Bit rate                         : 931 Kbps
Width                            : 608 pixels
Height                           : 256 pixels
Display aspect ratio             : 2.35:1
Frame rate                       : 25.000 fps
Color space                      : YUV
Chroma subsampling               : 4:2:0
Scan type                        : Progressive
Bits/(Pixel*Frame)               : 0.239
Stream size                      : 609 MiB (87%)
Writing library                  : XviD 1.1.0 (UTC 2005-11-22)


Audio:
                      
Language:                        : Polish 
Format                           : MPEG Audio
Format profile                   : Layer 3
Mode                             : Joint stereo
Codec ID                         : 55
Codec ID/Hint                    : MP3
Duration                         : 1h 31mn
Bit rate mode                    : Constant
Bit rate                         : 128 Kbps
Channel(s)                       : 2 channels
Sampling rate                    : 48.0 KHz
Stream size                      : 83.7 MiB (12%)
Alignment                        : Aligned on interleaves
Interleave, duration             : 40 ms (1.00 video frame)
Interleave, preload duration     : 504 ms
Writing library                  : LAME3.97 
                                          

Source: iLS
                              
http://www.imdb.com/title/tt0181739/ 
http://www.filmweb.pl/film/Osmosis+Jones-2001-8419 

PILOT

Frank Detomello zaczyna chorowac na grype. Wewnatrz jego ciala, (ktore nazywane jest 
przez jego mieszkancow "Miastem Franka" ) biała krwinka, policjant Osmosis Jones i tabletka przeciwko przeziebieniu Drixorial, muszą stoczyć walke z bezwzglednym wirusem, który zaatakowal cialo Franka.              




                               ..::rlf::..

SCREENS:
 
http://www.leetleech.org/images/01874253803487374209.png 
http://www.leetleech.org/images/46631515269974161257.png 
http://www.leetleech.org/images/13856801289967962137.png 
http://www.leetleech.org/images/07251511067576243069.png 
http://www.leetleech.org/images/29692751271157243543.png
